<svg xmlns="http://www.w3.org/2000/svg" width="84.17" height="83.965" viewBox="0 0 84.17 83.965">
  <g id="Group_1685" data-name="Group 1685" transform="translate(322 -0.855)">
    <path id="Path_310" data-name="Path 310" d="M-315.44,35.4v-.929A27.09,27.09,0,0,1-288.381,7.415,27.1,27.1,0,0,1-261.455,31.8l6.574,6c.076-.809.118-1.609.118-2.4v-.929A33.657,33.657,0,0,0-288.381.855,33.657,33.657,0,0,0-322,34.474V35.4c0,9.375,5.375,20.3,15.976,32.471a138.208,138.208,0,0,0,15.582,15.233l2.061,1.665V76.247C-295.028,70.424-315.44,51.245-315.44,35.4Z" fill="#dd662f"/>
    <path id="Path_311" data-name="Path 311" d="M-95.2,232.465l-25.542,23.3,4.421,4.846,1.844-1.683v10.531a8.9,8.9,0,0,0,8.893,8.893h20.768a8.9,8.9,0,0,0,8.893-8.893V258.931l1.844,1.683,4.421-4.846Zm12.718,37a2.336,2.336,0,0,1-2.334,2.334h-20.768a2.336,2.336,0,0,1-2.334-2.334V252.946l12.717-11.6,12.718,11.6Z" transform="translate(-168.169 -193.535)" fill="#dd662f"/>
    <path id="Path_312" data-name="Path 312" d="M-202.293,134.5a13.956,13.956,0,0,0,13.94,13.94,13.956,13.956,0,0,0,13.94-13.94,13.955,13.955,0,0,0-13.94-13.939A13.955,13.955,0,0,0-202.293,134.5Zm21.319,0a7.389,7.389,0,0,1-7.38,7.38,7.388,7.388,0,0,1-7.38-7.38,7.388,7.388,0,0,1,7.38-7.38A7.388,7.388,0,0,1-180.974,134.5Z" transform="translate(-100.028 -100.029)" fill="#dd662f"/>
  </g>
</svg>
