<svg xmlns="http://www.w3.org/2000/svg" width="126.08" height="84.965" viewBox="0 0 126.08 84.965">
  <g id="Group_1684" data-name="Group 1684" transform="translate(0.5 0.5)">
    <path id="Path_300" data-name="Path 300" d="M119.115,259.466a7.816,7.816,0,1,0-7.812-7.814A7.815,7.815,0,0,0,119.115,259.466Z" transform="translate(-84.112 -204.788)" fill="#dd662f" stroke="#dd662f" stroke-width="1"/>
    <path id="Path_301" data-name="Path 301" d="M106.073,305.022a9.553,9.553,0,0,1-12.766,0A14.794,14.794,0,0,0,85.6,318.051h28.189A14.794,14.794,0,0,0,106.073,305.022Z" transform="translate(-64.685 -251.027)" fill="#dd662f" stroke="#dd662f" stroke-width="1"/>
    <path id="Path_302" data-name="Path 302" d="M125.035,93.849A10.824,10.824,0,0,0,114.269,84H10.81A10.823,10.823,0,0,0,0,94.811v62.342a10.823,10.823,0,0,0,10.81,10.811H114.269a10.823,10.823,0,0,0,10.811-10.811V94.811C125.08,94.487,125.063,94.166,125.035,93.849ZM10.81,87.715H114.269a7.1,7.1,0,0,1,7.093,6.987A259.275,259.275,0,0,1,64.646,100.9h0A258.415,258.415,0,0,1,3.8,93.738,7.107,7.107,0,0,1,10.81,87.715Zm110.555,69.439a7.1,7.1,0,0,1-7.1,7.1H10.81a7.1,7.1,0,0,1-7.1-7.1V97.237a262,262,0,0,0,60.931,7.079,262.864,262.864,0,0,0,56.719-6.108Z" transform="translate(0 -84)" fill="#dd662f" stroke="#dd662f" stroke-width="1"/>
    <path id="Path_303" data-name="Path 303" d="M266.479,201.363h46.564a1.858,1.858,0,0,0,0-3.715H266.479a1.858,1.858,0,1,0,0,3.715Z" transform="translate(-199.975 -169.884)" fill="#dd662f" stroke="#dd662f" stroke-width="1"/>
    <path id="Path_304" data-name="Path 304" d="M424.908,252.809h-10.4a1.858,1.858,0,0,0,0,3.715h10.4a1.858,1.858,0,0,0,0-3.715Z" transform="translate(-311.839 -211.569)" fill="#dd662f" stroke="#dd662f" stroke-width="1"/>
    <path id="Path_305" data-name="Path 305" d="M266.479,256.524H295.21a1.858,1.858,0,1,0,0-3.715H266.479a1.858,1.858,0,1,0,0,3.715Z" transform="translate(-199.975 -211.569)" fill="#dd662f" stroke="#dd662f" stroke-width="1"/>
    <path id="Path_306" data-name="Path 306" d="M313.043,307.969H266.479a1.857,1.857,0,1,0,0,3.715h46.564a1.857,1.857,0,0,0,0-3.715Z" transform="translate(-199.975 -253.254)" fill="#dd662f" stroke="#dd662f" stroke-width="1"/>
    <path id="Path_307" data-name="Path 307" d="M291.743,363.129H266.479a1.858,1.858,0,1,0,0,3.715h25.264a1.858,1.858,0,0,0,0-3.715Z" transform="translate(-199.975 -294.939)" fill="#dd662f" stroke="#dd662f" stroke-width="1"/>
    <path id="Path_308" data-name="Path 308" d="M88.552,180.016h-43.1a1.858,1.858,0,0,0-1.858,1.858v49.041a1.858,1.858,0,0,0,1.858,1.858h43.1a1.858,1.858,0,0,0,1.858-1.858V181.874A1.858,1.858,0,0,0,88.552,180.016ZM86.7,229.058H47.314V183.731H86.7Z" transform="translate(-32.947 -156.56)" fill="#dd662f" stroke="#dd662f" stroke-width="1"/>
  </g>
</svg>
